<svg id="Capa_1" enable-background="new 0 0 512 512" height="512" viewBox="0 0 512 512" width="512" xmlns="http://www.w3.org/2000/svg"><g><path d="m398.517 270.698c5.283 0 9.566-4.283 9.566-9.566s-4.283-9.566-9.566-9.566-9.566 4.283-9.566 9.566 4.283 9.566 9.566 9.566z"/><path d="m166.198 226.958h-143.174c-11.224 0-20.354 9.131-20.354 20.354v60.073c0 11.224 9.131 20.354 20.354 20.354h31.894c4.084 0 7.396-3.311 7.396-7.396s-3.311-7.396-7.396-7.396h-31.894c-3.068 0-5.563-2.496-5.563-5.563v-60.073c0-3.067 2.496-5.563 5.563-5.563h143.174c3.068 0 5.563 2.496 5.563 5.563v60.073c0 3.067-2.496 5.563-5.563 5.563h-76.93c-4.084 0-7.396 3.311-7.396 7.396s3.311 7.396 7.396 7.396h76.93c11.224 0 20.355-9.131 20.355-20.354v-60.073c0-11.223-9.131-20.354-20.355-20.354z"/><path d="m31.441 260.961v33.643c0 4.085 3.311 7.396 7.396 7.396s7.396-3.311 7.396-7.396v-33.643c0-4.085-3.311-7.396-7.396-7.396s-7.396 3.311-7.396 7.396z"/><path d="m65.175 253.565c-4.084 0-7.396 3.311-7.396 7.396v33.643c0 4.085 3.311 7.396 7.396 7.396s7.396-3.311 7.396-7.396v-33.643c0-4.085-3.312-7.396-7.396-7.396z"/><path d="m108.574 294.603v-33.643c0-4.085-3.311-7.396-7.396-7.396-4.084 0-7.396 3.311-7.396 7.396v33.643c0 4.085 3.311 7.396 7.396 7.396s7.396-3.311 7.396-7.396z"/><path d="m132.506 294.603v-33.643c0-4.085-3.311-7.396-7.396-7.396-4.084 0-7.396 3.311-7.396 7.396v33.643c0 4.085 3.311 7.396 7.396 7.396s7.396-3.311 7.396-7.396z"/><path d="m156.019 294.603v-33.643c0-4.085-3.311-7.396-7.396-7.396-4.084 0-7.396 3.311-7.396 7.396v33.643c0 4.085 3.311 7.396 7.396 7.396 4.084 0 7.396-3.311 7.396-7.396z"/><path d="m504.186 117.466-20.918-25.096c-22.969-27.558-56.716-43.363-92.59-43.363h-17.149c-4.084 0-7.396 3.311-7.396 7.396s3.311 7.396 7.396 7.396h17.149c31.472 0 61.078 13.866 81.228 38.042l20.918 25.096c5.873 7.048 5.832 17.243-.098 24.243l-20.813 24.564c-20.131 23.76-49.537 37.386-80.676 37.386h-195.027c-6.797 0-12.326-5.529-12.326-12.326v-15.827h25.057c9.515 0 17.257-7.741 17.257-17.257v-58.512c0-9.515-7.741-17.257-17.257-17.257h-25.057v-15.827c0-6.797 5.529-12.326 12.326-12.326h142.485c4.084 0 7.396-3.311 7.396-7.396s-3.311-7.396-7.396-7.396h-142.485c-14.953 0-27.117 12.165-27.117 27.118v124.678c0 14.953 12.165 27.117 27.117 27.117h79.81v50.749c0 16.298 13.26 29.558 29.558 29.558h27.644v25.662c0 12.464-3.463 24.655-10.015 35.258l-15.537 25.141c-6.663 10.782-5.52 24.427 2.845 33.952l22.014 25.064c9.927 11.768 29.024 13.027 40.414 2.618l25.161-22.098c25.194-22.127 39.643-54.049 39.643-87.58v-127.647c17.354-7.256 32.968-18.56 45.45-33.291l20.813-24.565c10.586-12.494 10.661-30.694.176-43.274zm-295.245-10.724c1.359 0 2.465 1.105 2.465 2.465v58.512c0 1.36-1.106 2.465-2.465 2.465h-25.057v-63.442zm214.015 239.502c0 29.276-12.616 57.147-34.613 76.467l-25.161 22.098c-5.736 5.036-14.501 4.47-19.539-1.266l-22.013-25.064c-4.045-4.605-4.597-11.202-1.376-16.416l15.536-25.141c7.997-12.94 12.224-27.82 12.224-43.033v-61.037c0-4.085-3.311-7.396-7.396-7.396-4.084 0-7.396 3.311-7.396 7.396v20.584h-27.644c-8.142 0-14.766-6.624-14.766-14.766v-50.75h42.41v10.236c0 4.085 3.311 7.396 7.396 7.396s7.396-3.311 7.396-7.396v-10.236h43.222c10.84 0 21.494-1.456 31.721-4.24v122.564z"/><path d="m14.667 198.665c4.841.068 8.55-4.848 7.097-9.49-4.627-15.686-6.973-31.985-6.973-48.445 0-16.459 2.346-32.759 6.973-48.445 1.155-3.918-1.084-8.03-5.002-9.186-3.915-1.156-8.03 1.082-9.186 5.001-5.027 17.047-7.576 34.754-7.576 52.631s2.549 35.584 7.577 52.63c.95 3.219 3.896 5.304 7.09 5.304z"/><path d="m58.013 188.491c4.893.073 8.617-4.962 7.054-9.624-3.883-12.301-5.852-25.132-5.852-38.136 0-13.005 1.969-25.836 5.852-38.136 1.23-3.895-.931-8.05-4.826-9.279-3.897-1.231-8.05.932-9.279 4.826-4.339 13.742-6.539 28.071-6.539 42.589 0 14.517 2.2 28.846 6.539 42.589.997 3.154 3.91 5.171 7.051 5.171z"/><path d="m99.86 178.667c4.99.083 8.742-5.18 6.968-9.875-3.2-8.999-4.822-18.44-4.822-28.061s1.623-19.063 4.822-28.062c1.368-3.848-.642-8.077-4.49-9.446-3.849-1.371-8.077.641-9.446 4.49-3.767 10.595-5.677 21.703-5.677 33.018 0 11.314 1.91 22.422 5.677 33.017 1.077 3.029 3.927 4.919 6.968 4.919z"/><path d="m140.629 169.098c5.252.109 9.051-5.772 6.7-10.519-2.617-5.622-3.944-11.627-3.944-17.849 0-6.223 1.327-12.228 3.944-17.85 1.724-3.703.119-8.102-3.583-9.825-3.703-1.726-8.102-.12-9.826 3.583-3.534 7.59-5.326 15.697-5.326 24.092s1.792 16.501 5.326 24.091c1.253 2.694 3.922 4.277 6.709 4.277z"/><path d="m398.517 287.208c-4.085 0-7.396 3.311-7.396 7.396v36.059c0 4.085 3.311 7.396 7.396 7.396 4.084 0 7.396-3.311 7.396-7.396v-36.059c-.001-4.086-3.312-7.396-7.396-7.396z"/></g></svg>