<svg id="visual" viewBox="0 0 900 600" width="900" height="600" xmlns="http://www.w3.org/2000/svg" xmlns:xlink="http://www.w3.org/1999/xlink" version="1.1"><rect x="0" y="0" width="900" height="600" fill="#212121"></rect><defs><linearGradient id="grad1_0" x1="33.3%" y1="0%" x2="100%" y2="100%"><stop offset="20%" stop-color="#212121" stop-opacity="1"></stop><stop offset="80%" stop-color="#212121" stop-opacity="1"></stop></linearGradient></defs><defs><linearGradient id="grad2_0" x1="0%" y1="0%" x2="66.7%" y2="100%"><stop offset="20%" stop-color="#212121" stop-opacity="1"></stop><stop offset="80%" stop-color="#212121" stop-opacity="1"></stop></linearGradient></defs><g transform="translate(900, 0)"><path d="M0 351.5C-41.1 334.6 -82.2 317.6 -125.5 303C-168.8 288.5 -214.2 276.4 -248.6 248.6C-282.9 220.8 -306.2 177.2 -321.5 133.2C-336.8 89.1 -344.2 44.6 -351.5 0L0 0Z" fill="#009688"></path></g><g transform="translate(0, 600)"><path d="M0 -351.5C47 -347.8 93.9 -344.2 134.5 -324.8C175.1 -305.4 209.3 -270.4 234.1 -234.1C258.8 -197.7 274 -160.1 291.9 -120.9C309.9 -81.7 330.7 -40.9 351.5 0L0 0Z" fill="#009688"></path></g></svg>