<svg id="visual" viewBox="0 0 900 600" width="900" height="600" xmlns="http://www.w3.org/2000/svg" xmlns:xlink="http://www.w3.org/1999/xlink" version="1.1"><rect x="0" y="0" width="900" height="600" fill="#fafafa"></rect><defs><linearGradient id="grad1_0" x1="33.3%" y1="0%" x2="100%" y2="100%"><stop offset="20%" stop-color="#fafafa" stop-opacity="1"></stop><stop offset="80%" stop-color="#fafafa" stop-opacity="1"></stop></linearGradient></defs><defs><linearGradient id="grad2_0" x1="0%" y1="0%" x2="66.7%" y2="100%"><stop offset="20%" stop-color="#fafafa" stop-opacity="1"></stop><stop offset="80%" stop-color="#fafafa" stop-opacity="1"></stop></linearGradient></defs><g transform="translate(900, 0)"><path d="M0 324.5C-32.9 316.7 -65.8 308.9 -96.7 297.7C-127.6 286.4 -156.5 271.7 -184.6 254C-212.6 236.4 -239.7 215.7 -261.3 189.9C-282.9 164 -299 132.8 -308.6 100.3C-318.2 67.8 -321.4 33.9 -324.5 0L0 0Z" fill="#80cbc4"></path></g><g transform="translate(0, 600)"><path d="M0 -324.5C34.7 -322.4 69.4 -320.4 100.3 -308.6C131.2 -296.8 158.3 -275.3 184.6 -254C210.8 -232.7 236.1 -211.6 255.6 -185.7C275.2 -159.8 289.1 -129.1 299.6 -97.3C310.1 -65.6 317.3 -32.8 324.5 0L0 0Z" fill="#80cbc4"></path></g></svg>